# xmcd
#
# Track frame offsets:
#	150
#	11627
#	24351
#	36308
#	49300
#	63063
#	76495
#	89076
#	104020
#	118469
#	130688
#	142434
#	155365
#	166314
#	181507
#	194481
#	206342
#	216732
#	227378
#	238290
#	251309
#	262351
#	276596
#	289894
#	302549
#
# Disc length: 4195 seconds
#
# Revision: 1
# Processed by: cddbd v1.5.2PL0 Copyright (c) Steve Scherf et al.
# Submitted via: audiograbber 1.83.01
#
DISCID=81106119
DTITLE=Various Artist - Devils Jump  - 1946-54 [CD2]
DYEAR=1900
DGENRE=Blues
TTITLE0=Jimmie Gordon - Mistreated Blues
TTITLE1=Jimmie Gordon - I Ain't Like That No More
TTITLE2=Lee Brown - New Little Girl Little Girl
TTITLE3=John Lee Hooker - Nightmare Blues
TTITLE4=John Lee Hooker - Late Last Night
TTITLE5=Memphis Slim - Lend Me Your Love
TTITLE6=Memphis Slim - Pacemaker Boogie
TTITLE7=John Lee Hooker - Wandering Blues
TTITLE8=John Lee Hooker - Don't Go Baby
TTITLE9=Memphis Slim - Slim's Boogie
TTITLE10=Memphis Slim - A Letter Home
TTITLE11=Country Paul - Ain't It Sad
TTITLE12=Country Paul - One More Time
TTITLE13=John Lee - Down At The Depot
TTITLE14=John Lee - Alabama Boogie
TTITLE15=Smokey Hogg - Penny Pinchin' Mama
TTITLE16=Smokey Hogg - Do It No More
TTITLE17=Ralph Willis - Gonna Hop On Down The Line
TTITLE18=Ralph Willis - Do Right
TTITLE19=Robert Henry - Something's Wrong With My Little Machine
TTITLE20=Robert Henry - Old Battle Ax
TTITLE21=Eddie Burns - Hello Miss Jessie Lee
TTITLE22=Eddie Burns - Dealing With The Devil
TTITLE23=Eddie Kirkland - No Shoes [Take 1]
TTITLE24=Eddie Kirkland - No Shoes [Take 2]
EXTD=
EXTT0=
EXTT1=
EXTT2=
EXTT3=
EXTT4=
EXTT5=
EXTT6=
EXTT7=
EXTT8=
EXTT9=
EXTT10=
EXTT11=
EXTT12=
EXTT13=
EXTT14=
EXTT15=
EXTT16=
EXTT17=
EXTT18=
EXTT19=
EXTT20=
EXTT21=
EXTT22=
EXTT23=
EXTT24=
PLAYORDER=
